<mxfile host="Electron" modified="2023-07-28T00:58:40.299Z" agent="Mozilla/5.0 (X11; Linux x86_64) AppleWebKit/537.36 (KHTML, like Gecko) draw.io/21.6.5 Chrome/114.0.5735.243 Electron/25.3.1 Safari/537.36" etag="O_c0DSpN6u_9MClY0nSO" version="21.6.5" type="device">
  <diagram name="Page-1" id="oWkD6Wb1NbWKEjMFCBf-">
    <mxGraphModel dx="2074" dy="878" grid="1" gridSize="10" guides="1" tooltips="1" connect="1" arrows="1" fold="1" page="1" pageScale="1" pageWidth="850" pageHeight="1100" math="0" shadow="0">
      <root>
        <mxCell id="0" />
        <mxCell id="1" parent="0" />
        <mxCell id="2IK1CEsPObRKjQOFpOGc-40" style="edgeStyle=orthogonalEdgeStyle;rounded=0;orthogonalLoop=1;jettySize=auto;html=1;entryX=0.782;entryY=0.963;entryDx=0;entryDy=0;entryPerimeter=0;" parent="1" source="2IK1CEsPObRKjQOFpOGc-4" target="2IK1CEsPObRKjQOFpOGc-27" edge="1">
          <mxGeometry relative="1" as="geometry" />
        </mxCell>
        <mxCell id="2IK1CEsPObRKjQOFpOGc-4" value="Deck &lt;br&gt;of cards" style="shape=process;whiteSpace=wrap;html=1;backgroundOutline=1;rotation=0;" parent="1" vertex="1">
          <mxGeometry x="690" y="410" width="120" height="60" as="geometry" />
        </mxCell>
        <mxCell id="2IK1CEsPObRKjQOFpOGc-5" value="" style="whiteSpace=wrap;html=1;aspect=fixed;" parent="1" vertex="1">
          <mxGeometry x="140" y="480" width="610" height="610" as="geometry" />
        </mxCell>
        <mxCell id="2IK1CEsPObRKjQOFpOGc-7" value="playspace" style="text;html=1;strokeColor=none;fillColor=none;align=center;verticalAlign=middle;whiteSpace=wrap;rounded=0;" parent="1" vertex="1">
          <mxGeometry x="300" y="450" width="60" height="30" as="geometry" />
        </mxCell>
        <mxCell id="2IK1CEsPObRKjQOFpOGc-16" value="User&#39;s shared mem buffer" style="shape=process;whiteSpace=wrap;html=1;backgroundOutline=1;" parent="1" vertex="1">
          <mxGeometry x="180" y="990" width="450" height="60" as="geometry" />
        </mxCell>
        <mxCell id="2IK1CEsPObRKjQOFpOGc-25" style="edgeStyle=orthogonalEdgeStyle;rounded=0;orthogonalLoop=1;jettySize=auto;html=1;" parent="1" source="2IK1CEsPObRKjQOFpOGc-18" target="2IK1CEsPObRKjQOFpOGc-21" edge="1">
          <mxGeometry relative="1" as="geometry" />
        </mxCell>
        <mxCell id="2IK1CEsPObRKjQOFpOGc-18" value="process 1" style="whiteSpace=wrap;html=1;aspect=fixed;" parent="1" vertex="1">
          <mxGeometry x="160" y="530" width="80" height="80" as="geometry" />
        </mxCell>
        <mxCell id="2IK1CEsPObRKjQOFpOGc-24" style="edgeStyle=orthogonalEdgeStyle;rounded=0;orthogonalLoop=1;jettySize=auto;html=1;" parent="1" source="2IK1CEsPObRKjQOFpOGc-19" target="2IK1CEsPObRKjQOFpOGc-23" edge="1">
          <mxGeometry relative="1" as="geometry" />
        </mxCell>
        <mxCell id="2IK1CEsPObRKjQOFpOGc-19" value="process 2" style="whiteSpace=wrap;html=1;aspect=fixed;" parent="1" vertex="1">
          <mxGeometry x="280" y="540" width="80" height="80" as="geometry" />
        </mxCell>
        <mxCell id="2IK1CEsPObRKjQOFpOGc-26" style="edgeStyle=orthogonalEdgeStyle;rounded=0;orthogonalLoop=1;jettySize=auto;html=1;" parent="1" source="2IK1CEsPObRKjQOFpOGc-20" target="2IK1CEsPObRKjQOFpOGc-22" edge="1">
          <mxGeometry relative="1" as="geometry" />
        </mxCell>
        <mxCell id="2IK1CEsPObRKjQOFpOGc-20" value="process 3" style="whiteSpace=wrap;html=1;aspect=fixed;" parent="1" vertex="1">
          <mxGeometry x="420" y="540" width="80" height="80" as="geometry" />
        </mxCell>
        <mxCell id="2IK1CEsPObRKjQOFpOGc-38" style="edgeStyle=orthogonalEdgeStyle;rounded=0;orthogonalLoop=1;jettySize=auto;html=1;entryX=0.5;entryY=0;entryDx=0;entryDy=0;" parent="1" source="2IK1CEsPObRKjQOFpOGc-21" target="2IK1CEsPObRKjQOFpOGc-33" edge="1">
          <mxGeometry relative="1" as="geometry" />
        </mxCell>
        <mxCell id="2IK1CEsPObRKjQOFpOGc-21" value="memory alloc / turn" style="rounded=1;whiteSpace=wrap;html=1;" parent="1" vertex="1">
          <mxGeometry x="170" y="640" width="60" height="60" as="geometry" />
        </mxCell>
        <mxCell id="2IK1CEsPObRKjQOFpOGc-36" style="edgeStyle=orthogonalEdgeStyle;rounded=0;orthogonalLoop=1;jettySize=auto;html=1;entryX=0.5;entryY=0;entryDx=0;entryDy=0;" parent="1" source="2IK1CEsPObRKjQOFpOGc-22" target="2IK1CEsPObRKjQOFpOGc-35" edge="1">
          <mxGeometry relative="1" as="geometry" />
        </mxCell>
        <mxCell id="2IK1CEsPObRKjQOFpOGc-22" value="memory alloc / turn" style="rounded=1;whiteSpace=wrap;html=1;" parent="1" vertex="1">
          <mxGeometry x="430" y="650" width="60" height="50" as="geometry" />
        </mxCell>
        <mxCell id="2IK1CEsPObRKjQOFpOGc-37" style="edgeStyle=orthogonalEdgeStyle;rounded=0;orthogonalLoop=1;jettySize=auto;html=1;entryX=0.5;entryY=0;entryDx=0;entryDy=0;" parent="1" source="2IK1CEsPObRKjQOFpOGc-23" target="2IK1CEsPObRKjQOFpOGc-34" edge="1">
          <mxGeometry relative="1" as="geometry" />
        </mxCell>
        <mxCell id="2IK1CEsPObRKjQOFpOGc-23" value="memory alloc / turn" style="rounded=1;whiteSpace=wrap;html=1;" parent="1" vertex="1">
          <mxGeometry x="290" y="650" width="60" height="60" as="geometry" />
        </mxCell>
        <mxCell id="2IK1CEsPObRKjQOFpOGc-27" value="minigame to pass turn and reduce point loss" style="shape=cube;whiteSpace=wrap;html=1;boundedLbl=1;backgroundOutline=1;darkOpacity=0.05;darkOpacity2=0.1;" parent="1" vertex="1">
          <mxGeometry x="290" y="270" width="490" height="80" as="geometry" />
        </mxCell>
        <mxCell id="2IK1CEsPObRKjQOFpOGc-28" value="already chosen 1" style="rounded=0;whiteSpace=wrap;html=1;" parent="1" vertex="1">
          <mxGeometry x="200" y="910" width="120" height="60" as="geometry" />
        </mxCell>
        <mxCell id="2IK1CEsPObRKjQOFpOGc-29" value="chosen 2" style="rounded=0;whiteSpace=wrap;html=1;" parent="1" vertex="1">
          <mxGeometry x="320" y="910" width="120" height="60" as="geometry" />
        </mxCell>
        <mxCell id="2IK1CEsPObRKjQOFpOGc-30" value="chosen 3" style="rounded=0;whiteSpace=wrap;html=1;" parent="1" vertex="1">
          <mxGeometry x="440" y="910" width="120" height="60" as="geometry" />
        </mxCell>
        <mxCell id="2IK1CEsPObRKjQOFpOGc-31" value="scheduler" style="text;html=1;strokeColor=none;fillColor=none;align=center;verticalAlign=middle;whiteSpace=wrap;rounded=0;" parent="1" vertex="1">
          <mxGeometry x="330" y="870" width="60" height="30" as="geometry" />
        </mxCell>
        <mxCell id="2IK1CEsPObRKjQOFpOGc-33" value="contiguos?" style="rhombus;whiteSpace=wrap;html=1;" parent="1" vertex="1">
          <mxGeometry x="140" y="710" width="105" height="60" as="geometry" />
        </mxCell>
        <mxCell id="2IK1CEsPObRKjQOFpOGc-34" value="contiguos?" style="rhombus;whiteSpace=wrap;html=1;" parent="1" vertex="1">
          <mxGeometry x="267.5" y="720" width="105" height="60" as="geometry" />
        </mxCell>
        <mxCell id="2IK1CEsPObRKjQOFpOGc-35" value="contiguos?" style="rhombus;whiteSpace=wrap;html=1;" parent="1" vertex="1">
          <mxGeometry x="410" y="720" width="105" height="60" as="geometry" />
        </mxCell>
        <mxCell id="2IK1CEsPObRKjQOFpOGc-39" value="&lt;h1&gt;Game: Bus&lt;/h1&gt;&lt;div&gt;user can queue up to 3 processes that have differerent memory allocations per turn. Each turn they are given 3 choices for a process to queue. Contiguous allocations take one turn to complete, non-contiguous take two. Each completed task yields 1pt per allocation and 1 life for completion. If the user cannot queue a task without overflowing their buffer they can play a minigame chosen from the deck of cards. Winning the game results in the points staying the way they are. Losing results in a 1 life deduction.&amp;nbsp;&lt;/div&gt;" style="text;html=1;strokeColor=none;fillColor=none;spacing=5;spacingTop=-20;whiteSpace=wrap;overflow=hidden;rounded=0;" parent="1" vertex="1">
          <mxGeometry x="40" y="20" width="200" height="300" as="geometry" />
        </mxCell>
        <mxCell id="2IK1CEsPObRKjQOFpOGc-41" value="# tasks completed&lt;br&gt;lives: ######" style="rounded=0;whiteSpace=wrap;html=1;" parent="1" vertex="1">
          <mxGeometry x="70" y="350" width="230" height="90" as="geometry" />
        </mxCell>
        <mxCell id="2IK1CEsPObRKjQOFpOGc-42" value="Store main game state when transitioning&lt;br&gt;&lt;br&gt;probably use FileContext" style="rounded=1;whiteSpace=wrap;html=1;" parent="1" vertex="1">
          <mxGeometry x="10" y="1140" width="120" height="140" as="geometry" />
        </mxCell>
        <mxCell id="2IK1CEsPObRKjQOFpOGc-43" value="Minigame slingshot. Just use Matter, setup and give the user one shot. Setup like bowling pins and randomize ct of pins,&lt;br&gt;pin location randomized" style="rounded=1;whiteSpace=wrap;html=1;" parent="1" vertex="1">
          <mxGeometry x="160" y="1140" width="140" height="140" as="geometry" />
        </mxCell>
        <mxCell id="2IK1CEsPObRKjQOFpOGc-44" value="typing test, random characters generated, user needs to input, errror is failure" style="rounded=1;whiteSpace=wrap;html=1;" parent="1" vertex="1">
          <mxGeometry x="330" y="1140" width="120" height="140" as="geometry" />
        </mxCell>
        <mxCell id="2IK1CEsPObRKjQOFpOGc-45" value="" style="rounded=1;whiteSpace=wrap;html=1;" parent="1" vertex="1">
          <mxGeometry x="480" y="1140" width="130" height="140" as="geometry" />
        </mxCell>
      </root>
    </mxGraphModel>
  </diagram>
</mxfile>
